<?xml version="1.0" standalone="no"?>
<!DOCTYPE svg PUBLIC "-//W3C//DTD SVG 20010904//EN"
 "http://www.w3.org/TR/2001/REC-SVG-20010904/DTD/svg10.dtd">
<svg version="1.0" xmlns="http://www.w3.org/2000/svg"
 width="460.000000pt" height="460.000000pt" viewBox="0 0 460.000000 460.000000"
 preserveAspectRatio="xMidYMid meet">
<metadata>
Created by potrace 1.14, written by Peter Selinger 2001-2017
</metadata>
<g transform="translate(0.000000,460.000000) scale(0.100000,-0.100000)"
fill="#000000" stroke="none">
<path d="M862 3210 c-12 -5 -27 -21 -32 -35 -6 -16 -7 -335 -3 -880 6 -775 8
-856 23 -870 14 -13 160 -15 1126 -17 l1109 -3 107 32 c233 71 408 186 527
346 93 127 161 334 161 492 0 102 38 95 -541 95 l-496 0 -6 70 c-11 131 -80
313 -162 431 l-35 48 43 13 c71 21 317 15 408 -10 129 -35 243 -100 351 -199
75 -68 96 -69 192 -6 119 78 122 94 35 188 -104 111 -245 199 -404 254 -176
59 -217 61 -1353 60 -592 0 -1037 -4 -1050 -9z m1199 -293 c15 -7 14 -12 -8
-35 -47 -50 -119 -167 -151 -243 -81 -196 -81 -473 0 -666 34 -82 95 -183 141
-230 17 -18 27 -36 23 -40 -4 -5 -219 -9 -477 -11 l-469 -3 0 621 0 621 463
-3 c254 -2 469 -7 478 -11z m332 -199 c113 -135 161 -350 122 -555 -18 -93
-77 -220 -132 -282 l-39 -44 -27 18 c-34 22 -85 92 -125 170 -84 163 -83 401
2 563 33 61 130 182 147 182 4 0 27 -24 52 -52z m1147 -632 c0 -65 -128 -234
-226 -299 -144 -97 -394 -140 -607 -105 -40 6 -73 12 -75 14 -2 1 17 28 41 61
68 89 97 152 152 330 3 9 92 12 360 13 306 0 355 -2 355 -14z"/>
</g>
</svg>
